<svg xmlns="http://www.w3.org/2000/svg" viewBox="0 0 1094 2317" width="1094" height="2317" font-synthesis="none">
<!-- Secure PVAccess demonstration laboratory, simple topology with a gateway on Kubernetes - hand-drawn flat-design infographic. -->
<defs><marker id="arr" viewBox="0 0 10 10" refX="9" refY="5" markerWidth="7" markerHeight="7" orient="auto-start-reverse"><path d="M 0 0 L 10 5 L 0 10 z" fill="#8E24AA"/></marker></defs>
<rect x="0" y="0" width="1094" height="2317" fill="#FAFAFA"/>
<text x="40" y="40" font-family="Helvetica Neue,Arial,sans-serif" font-size="26" font-weight="bold" fill="#263238">Secure PVAccess demonstration laboratory</text>
<text x="40" y="60" font-family="Helvetica Neue,Arial,sans-serif" font-size="14" fill="#607D8B">simple with a gateway: the laboratory published at the facility Service, reached over TLS alone - example/kubernetes</text>
<text x="40" y="82" font-family="Menlo,Consolas,monospace" font-size="11" fill="#607D8B">Cluster: kind, name spva-lab, namespace spva-lab. Cilium is the network plugin.</text>
<text x="40" y="97" font-family="Menlo,Consolas,monospace" font-size="11" fill="#607D8B">The segments below are NetworkPolicy, enforced by Cilium; the default CNI of kind does not enforce policy at all.</text>
<rect x="40" y="902" width="970" height="691" rx="10" fill="#E8EAF6" stroke="#3949AB" stroke-width="1.6"/>
<path d="M 40 912 a10 10 0 0 1 10 -10 h950 a10 10 0 0 1 10 10 v34 h-970 z" fill="#3949AB" fill-opacity="0.92"/>
<circle cx="57" cy="929" r="2.6" fill="white"/><circle cx="67" cy="929" r="2.6" fill="white"/><circle cx="62" cy="919" r="2.6" fill="white"/><path d="M 62 919 L 57 929 M 62 919 L 67 929 M 57 929 H 67" stroke="white" stroke-width="1.4"/>
<text x="80" y="930" font-family="Helvetica Neue,Arial,sans-serif" font-size="15" font-weight="bold" fill="white">lab segment - NetworkPolicy lab-segment-ingress</text>
<text x="66" y="966" font-family="Menlo,Consolas,monospace" font-size="11" fill="#3949AB">ingress: zone=lab pods, and app=gateway</text>
<rect x="341.0" y="124" width="388" height="225" rx="10" fill="#EDE7F6" stroke="#6A1B9A" stroke-width="1.6"/>
<path d="M 341.0 134 a10 10 0 0 1 10 -10 h368 a10 10 0 0 1 10 10 v34 h-388 z" fill="#6A1B9A" fill-opacity="0.92"/>
<circle cx="358.0" cy="151" r="2.6" fill="white"/><circle cx="368.0" cy="151" r="2.6" fill="white"/><circle cx="363.0" cy="141" r="2.6" fill="white"/><path d="M 363.0 141 L 358.0 151 M 363.0 141 L 368.0 151 M 358.0 151 H 368.0" stroke="white" stroke-width="1.4"/>
<text x="381.0" y="152" font-family="Helvetica Neue,Arial,sans-serif" font-size="15" font-weight="bold" fill="white">internet</text>
<rect x="315.5" y="405" width="439" height="433" rx="10" fill="#FFF8E1" stroke="#FFB300" stroke-width="1.6"/>
<path d="M 315.5 415 a10 10 0 0 1 10 -10 h419 a10 10 0 0 1 10 10 v34 h-439 z" fill="#FFB300" fill-opacity="0.92"/>
<circle cx="332.5" cy="432" r="2.6" fill="white"/><circle cx="342.5" cy="432" r="2.6" fill="white"/><circle cx="337.5" cy="422" r="2.6" fill="white"/><path d="M 337.5 422 L 332.5 432 M 337.5 422 L 342.5 432 M 332.5 432 H 342.5" stroke="white" stroke-width="1.4"/>
<text x="355.5" y="433" font-family="Helvetica Neue,Arial,sans-serif" font-size="15" font-weight="bold" fill="white">perimeter - NetworkPolicy gateway-ingress</text>
<text x="341.5" y="471" font-family="Menlo,Consolas,monospace" font-size="11" fill="#FFB300">ingress: zone=internet on 5076/TCP only</text>
<path d="M 66 1178 L 984 1178" fill="none" stroke="#3949AB" stroke-width="4" stroke-linejoin="round" stroke-linecap="round"/>
<g><rect x="660.5999999999999" y="1153" width="303.40000000000003" height="18" rx="9" fill="white" stroke="#3949AB" stroke-width="1.2"/><text x="812.3" y="1165.5" text-anchor="middle" font-family="Menlo,Consolas,monospace" font-size="10" fill="#3949AB">PVA search and data  5075/TCP 5076/TCP 5076/UDP</text></g>
<g><rect x="66.0" y="980" width="303" height="164" rx="8" fill="#ECEFF1" stroke="#546E7A" stroke-width="1.4"/>
<path d="M 66.0 988 a8 8 0 0 1 8 -8 h287 a8 8 0 0 1 8 8 v22 h-303 z" fill="#546E7A"/>
<rect x="75.0" y="989" width="16" height="10" rx="1.5" fill="none" stroke="white" stroke-width="1.8"/><line x1="83.0" y1="999" x2="83.0" y2="1002" stroke="white" stroke-width="1.8"/><line x1="79.0" y1="1002.5" x2="87.0" y2="1002.5" stroke="white" stroke-width="1.8"/>
<text x="98.0" y="1000" font-family="Menlo,Consolas,monospace" font-size="12" font-weight="bold" fill="white" xml:space="preserve">lab-client</text>
<text x="78.0" y="1029" font-family="Menlo,Consolas,monospace" font-size="11" fill="#263238" xml:space="preserve">Labels: app=lab-client zone=lab</text>
<text x="78.0" y="1044" font-family="Menlo,Consolas,monospace" font-size="11" fill="#263238" xml:space="preserve">Image: lab</text>
<text x="78.0" y="1059" font-family="Menlo,Consolas,monospace" font-size="11" fill="#263238" xml:space="preserve">Logins: guest, operator</text>
<text x="78.0" y="1074" font-family="Menlo,Consolas,monospace" font-size="11" fill="#263238" xml:space="preserve">EPICS_PVA_AUTO_ADDR_LIST: NO</text>
<text x="78.0" y="1089" font-family="Menlo,Consolas,monospace" font-size="11" fill="#263238" xml:space="preserve">EPICS_PVA_ADDR_LIST: pvxs-lab-pvacms</text>
<text x="78.0" y="1104" font-family="Menlo,Consolas,monospace" font-size="11" fill="#263238" xml:space="preserve">    pvxs-lab-testioc pvxs-lab-tstioc</text>
<text x="78.0" y="1119" font-family="Menlo,Consolas,monospace" font-size="11" fill="#263238" xml:space="preserve">Claim: lab-client-config</text>
<text x="78.0" y="1134" font-family="Menlo,Consolas,monospace" font-size="11" fill="#263238" xml:space="preserve">Mounts: ConfigMaps lab-scripts, lab-issuer</text>
</g>
<g><rect x="105.5" y="1210" width="224" height="89" rx="8" fill="#EFEBE9" stroke="#5D4037" stroke-width="1.4"/>
<path d="M 105.5 1218 a8 8 0 0 1 8 -8 h208 a8 8 0 0 1 8 8 v22 h-224 z" fill="#5D4037"/>
<line x1="116.5" y1="1225" x2="121.5" y2="1225" stroke="white" stroke-width="1.8"/><path d="M 121.5 1225 L 128.5 1219" stroke="white" stroke-width="1.5" fill="none"/><path d="M 121.5 1225 L 128.5 1225" stroke="white" stroke-width="1.5" fill="none"/><path d="M 121.5 1225 L 128.5 1231" stroke="white" stroke-width="1.5" fill="none"/><circle cx="121.5" cy="1225" r="2" fill="white"/>
<text x="137.5" y="1230" font-family="Menlo,Consolas,monospace" font-size="12" font-weight="bold" fill="white" xml:space="preserve">svc pvxs-lab-testioc</text>
<text x="117.5" y="1259" font-family="Menlo,Consolas,monospace" font-size="11" fill="#263238" xml:space="preserve">ClusterIP</text>
<text x="117.5" y="1274" font-family="Menlo,Consolas,monospace" font-size="11" fill="#263238" xml:space="preserve">5075/TCP 5076/TCP 5076/UDP</text>
<text x="117.5" y="1289" font-family="Menlo,Consolas,monospace" font-size="11" fill="#263238" xml:space="preserve">selects app=testioc</text>
</g>
<g><rect x="427.0" y="1210" width="216" height="89" rx="8" fill="#EFEBE9" stroke="#5D4037" stroke-width="1.4"/>
<path d="M 427.0 1218 a8 8 0 0 1 8 -8 h200 a8 8 0 0 1 8 8 v22 h-216 z" fill="#5D4037"/>
<line x1="438.0" y1="1225" x2="443.0" y2="1225" stroke="white" stroke-width="1.8"/><path d="M 443.0 1225 L 450.0 1219" stroke="white" stroke-width="1.5" fill="none"/><path d="M 443.0 1225 L 450.0 1225" stroke="white" stroke-width="1.5" fill="none"/><path d="M 443.0 1225 L 450.0 1231" stroke="white" stroke-width="1.5" fill="none"/><circle cx="443.0" cy="1225" r="2" fill="white"/>
<text x="459.0" y="1230" font-family="Menlo,Consolas,monospace" font-size="12" font-weight="bold" fill="white" xml:space="preserve">svc pvxs-lab-tstioc</text>
<text x="439.0" y="1259" font-family="Menlo,Consolas,monospace" font-size="11" fill="#263238" xml:space="preserve">ClusterIP</text>
<text x="439.0" y="1274" font-family="Menlo,Consolas,monospace" font-size="11" fill="#263238" xml:space="preserve">5075/TCP 5076/TCP 5076/UDP</text>
<text x="439.0" y="1289" font-family="Menlo,Consolas,monospace" font-size="11" fill="#263238" xml:space="preserve">selects app=tstioc</text>
</g>
<g><rect x="734.5" y="1210" width="216" height="89" rx="8" fill="#EFEBE9" stroke="#5D4037" stroke-width="1.4"/>
<path d="M 734.5 1218 a8 8 0 0 1 8 -8 h200 a8 8 0 0 1 8 8 v22 h-216 z" fill="#5D4037"/>
<line x1="745.5" y1="1225" x2="750.5" y2="1225" stroke="white" stroke-width="1.8"/><path d="M 750.5 1225 L 757.5 1219" stroke="white" stroke-width="1.5" fill="none"/><path d="M 750.5 1225 L 757.5 1225" stroke="white" stroke-width="1.5" fill="none"/><path d="M 750.5 1225 L 757.5 1231" stroke="white" stroke-width="1.5" fill="none"/><circle cx="750.5" cy="1225" r="2" fill="white"/>
<text x="766.5" y="1230" font-family="Menlo,Consolas,monospace" font-size="12" font-weight="bold" fill="white" xml:space="preserve">svc pvxs-lab-pvacms</text>
<text x="746.5" y="1259" font-family="Menlo,Consolas,monospace" font-size="11" fill="#263238" xml:space="preserve">ClusterIP</text>
<text x="746.5" y="1274" font-family="Menlo,Consolas,monospace" font-size="11" fill="#263238" xml:space="preserve">5075/TCP 5076/TCP 5076/UDP</text>
<text x="746.5" y="1289" font-family="Menlo,Consolas,monospace" font-size="11" fill="#263238" xml:space="preserve">selects app=pvacms</text>
</g>
<g><rect x="69.5" y="1343" width="296" height="209" rx="8" fill="#E8F5E9" stroke="#43A047" stroke-width="1.4"/>
<path d="M 69.5 1351 a8 8 0 0 1 8 -8 h280 a8 8 0 0 1 8 8 v22 h-296 z" fill="#43A047"/>
<rect x="80.5" y="1352" width="12" height="12" rx="1.5" fill="none" stroke="white" stroke-width="1.8"/><line x1="83.5" y1="1350" x2="83.5" y2="1352" stroke="white" stroke-width="1.4"/><line x1="83.5" y1="1364" x2="83.5" y2="1366" stroke="white" stroke-width="1.4"/><line x1="86.5" y1="1350" x2="86.5" y2="1352" stroke="white" stroke-width="1.4"/><line x1="86.5" y1="1364" x2="86.5" y2="1366" stroke="white" stroke-width="1.4"/><line x1="89.5" y1="1350" x2="89.5" y2="1352" stroke="white" stroke-width="1.4"/><line x1="89.5" y1="1364" x2="89.5" y2="1366" stroke="white" stroke-width="1.4"/>
<text x="101.5" y="1363" font-family="Menlo,Consolas,monospace" font-size="12" font-weight="bold" fill="white" xml:space="preserve">pvxs-lab-testioc</text>
<text x="81.5" y="1392" font-family="Menlo,Consolas,monospace" font-size="11" fill="#263238" xml:space="preserve">Labels: app=testioc zone=lab</text>
<text x="81.5" y="1407" font-family="Menlo,Consolas,monospace" font-size="11" fill="#263238" xml:space="preserve">Image: testioc</text>
<text x="81.5" y="1422" font-family="Menlo,Consolas,monospace" font-size="11" fill="#263238" xml:space="preserve">EPICS_PVA_AUTO_ADDR_LIST: NO</text>
<text x="81.5" y="1437" font-family="Menlo,Consolas,monospace" font-size="11" fill="#263238" xml:space="preserve">EPICS_PVA_ADDR_LIST: pvxs-lab-pvacms</text>
<text x="81.5" y="1452" font-family="Menlo,Consolas,monospace" font-size="11" fill="#263238" xml:space="preserve">    pvxs-lab-testioc pvxs-lab-tstioc</text>
<text x="81.5" y="1467" font-family="Menlo,Consolas,monospace" font-size="11" fill="#263238" xml:space="preserve">Access file from ConfigMap lab-acf</text>
<text x="81.5" y="1482" font-family="Menlo,Consolas,monospace" font-size="11" fill="#263238" xml:space="preserve">Claim: testioc-config</text>
<text x="81.5" y="1497" font-family="Menlo,Consolas,monospace" font-size="11" fill="#263238" xml:space="preserve">Serves:</text>
<text x="81.5" y="1512" font-family="Menlo,Consolas,monospace" font-size="11" fill="#263238" xml:space="preserve">    test:aiExample, test:stringExample</text>
<text x="81.5" y="1527" font-family="Menlo,Consolas,monospace" font-size="11" fill="#263238" xml:space="preserve">    test:longExample, test:enumExample</text>
<text x="81.5" y="1542" font-family="Menlo,Consolas,monospace" font-size="11" fill="#263238" xml:space="preserve">    test:spec (SPECIAL), test:open (OPEN)</text>
</g>
<g><rect x="397.0" y="1343" width="276" height="179" rx="8" fill="#E8F5E9" stroke="#43A047" stroke-width="1.4"/>
<path d="M 397.0 1351 a8 8 0 0 1 8 -8 h260 a8 8 0 0 1 8 8 v22 h-276 z" fill="#43A047"/>
<rect x="408.0" y="1352" width="12" height="12" rx="1.5" fill="none" stroke="white" stroke-width="1.8"/><line x1="411.0" y1="1350" x2="411.0" y2="1352" stroke="white" stroke-width="1.4"/><line x1="411.0" y1="1364" x2="411.0" y2="1366" stroke="white" stroke-width="1.4"/><line x1="414.0" y1="1350" x2="414.0" y2="1352" stroke="white" stroke-width="1.4"/><line x1="414.0" y1="1364" x2="414.0" y2="1366" stroke="white" stroke-width="1.4"/><line x1="417.0" y1="1350" x2="417.0" y2="1352" stroke="white" stroke-width="1.4"/><line x1="417.0" y1="1364" x2="417.0" y2="1366" stroke="white" stroke-width="1.4"/>
<text x="429.0" y="1363" font-family="Menlo,Consolas,monospace" font-size="12" font-weight="bold" fill="white" xml:space="preserve">pvxs-lab-tstioc</text>
<text x="409.0" y="1392" font-family="Menlo,Consolas,monospace" font-size="11" fill="#263238" xml:space="preserve">Labels: app=tstioc zone=lab</text>
<text x="409.0" y="1407" font-family="Menlo,Consolas,monospace" font-size="11" fill="#263238" xml:space="preserve">Image: tstioc</text>
<text x="409.0" y="1422" font-family="Menlo,Consolas,monospace" font-size="11" fill="#263238" xml:space="preserve">EPICS_PVA_AUTO_ADDR_LIST: NO</text>
<text x="409.0" y="1437" font-family="Menlo,Consolas,monospace" font-size="11" fill="#263238" xml:space="preserve">EPICS_PVA_ADDR_LIST: pvxs-lab-pvacms</text>
<text x="409.0" y="1452" font-family="Menlo,Consolas,monospace" font-size="11" fill="#263238" xml:space="preserve">    pvxs-lab-testioc pvxs-lab-tstioc</text>
<text x="409.0" y="1467" font-family="Menlo,Consolas,monospace" font-size="11" fill="#263238" xml:space="preserve">Access file from ConfigMap lab-acf</text>
<text x="409.0" y="1482" font-family="Menlo,Consolas,monospace" font-size="11" fill="#263238" xml:space="preserve">Claim: tstioc-config</text>
<text x="409.0" y="1497" font-family="Menlo,Consolas,monospace" font-size="11" fill="#263238" xml:space="preserve">Serves: tst:ArrayData, tst:ColorMode,</text>
<text x="409.0" y="1512" font-family="Menlo,Consolas,monospace" font-size="11" fill="#263238" xml:space="preserve">    and the rest of the image database</text>
</g>
<g><rect x="701.0" y="1343" width="283" height="224" rx="8" fill="#E3F2FD" stroke="#1E88E5" stroke-width="1.4"/>
<path d="M 701.0 1351 a8 8 0 0 1 8 -8 h267 a8 8 0 0 1 8 8 v22 h-283 z" fill="#1E88E5"/>
<circle cx="716.0" cy="1356" r="4.2" fill="none" stroke="white" stroke-width="1.8"/><path d="M 719.0 1359 l6 6 m-2.5 -1 l2 -2 m-4.5 0 l1.6 -1.6" stroke="white" stroke-width="1.8" fill="none"/>
<text x="733.0" y="1363" font-family="Menlo,Consolas,monospace" font-size="12" font-weight="bold" fill="white" xml:space="preserve">pvxs-lab-pvacms</text>
<text x="713.0" y="1392" font-family="Menlo,Consolas,monospace" font-size="11" fill="#263238" xml:space="preserve">Labels: app=pvacms zone=lab</text>
<text x="713.0" y="1407" font-family="Menlo,Consolas,monospace" font-size="11" fill="#263238" xml:space="preserve">Image: idm</text>
<text x="713.0" y="1422" font-family="Menlo,Consolas,monospace" font-size="11" fill="#263238" xml:space="preserve">Mints its own authority at first start:</text>
<text x="713.0" y="1437" font-family="Menlo,Consolas,monospace" font-size="11" fill="#263238" xml:space="preserve">    cert_auth.p12 on claim idm-data</text>
<text x="713.0" y="1452" font-family="Menlo,Consolas,monospace" font-size="11" fill="#263238" xml:space="preserve">Access file from ConfigMap lab-acf</text>
<text x="713.0" y="1467" font-family="Menlo,Consolas,monospace" font-size="11" fill="#263238" xml:space="preserve">Claims: idm-config, idm-data</text>
<text x="713.0" y="1482" font-family="Menlo,Consolas,monospace" font-size="11" fill="#263238" xml:space="preserve">EPICS_PVA_AUTO_ADDR_LIST: NO</text>
<text x="713.0" y="1497" font-family="Menlo,Consolas,monospace" font-size="11" fill="#263238" xml:space="preserve">EPICS_PVA_ADDR_LIST: pvxs-lab-pvacms</text>
<text x="713.0" y="1512" font-family="Menlo,Consolas,monospace" font-size="11" fill="#263238" xml:space="preserve">    pvxs-lab-testioc pvxs-lab-tstioc</text>
<text x="713.0" y="1527" font-family="Menlo,Consolas,monospace" font-size="11" fill="#263238" xml:space="preserve">Serves:</text>
<text x="713.0" y="1542" font-family="Menlo,Consolas,monospace" font-size="11" fill="#263238" xml:space="preserve">    CERT:CREATE, CERT:LIST</text>
<text x="713.0" y="1557" font-family="Menlo,Consolas,monospace" font-size="11" fill="#263238" xml:space="preserve">    CERT:STATUS:&lt;issuer&gt;:&lt;serial&gt;</text>
</g>
<g><rect x="367.0" y="180" width="336" height="149" rx="8" fill="#ECEFF1" stroke="#546E7A" stroke-width="1.4"/>
<path d="M 367.0 188 a8 8 0 0 1 8 -8 h320 a8 8 0 0 1 8 8 v22 h-336 z" fill="#546E7A"/>
<rect x="376.0" y="189" width="16" height="10" rx="1.5" fill="none" stroke="white" stroke-width="1.8"/><line x1="384.0" y1="199" x2="384.0" y2="202" stroke="white" stroke-width="1.8"/><line x1="380.0" y1="202.5" x2="388.0" y2="202.5" stroke="white" stroke-width="1.8"/>
<text x="399.0" y="200" font-family="Menlo,Consolas,monospace" font-size="12" font-weight="bold" fill="white" xml:space="preserve">internet-client</text>
<text x="379.0" y="229" font-family="Menlo,Consolas,monospace" font-size="11" fill="#263238" xml:space="preserve">Labels: app=internet-client zone=internet</text>
<text x="379.0" y="244" font-family="Menlo,Consolas,monospace" font-size="11" fill="#263238" xml:space="preserve">Image: internet</text>
<text x="379.0" y="259" font-family="Menlo,Consolas,monospace" font-size="11" fill="#263238" xml:space="preserve">Logins: guest, operator</text>
<text x="379.0" y="274" font-family="Menlo,Consolas,monospace" font-size="11" fill="#263238" xml:space="preserve">EPICS_PVA_AUTO_ADDR_LIST: NO</text>
<text x="379.0" y="289" font-family="Menlo,Consolas,monospace" font-size="11" fill="#263238" xml:space="preserve">EPICS_PVA_NAME_SERVERS: pvas://facility:5076</text>
<text x="379.0" y="304" font-family="Menlo,Consolas,monospace" font-size="11" fill="#263238" xml:space="preserve">EPICS_PVA_TLS_OPTIONS: no_own_cert_status_check</text>
<text x="379.0" y="319" font-family="Menlo,Consolas,monospace" font-size="11" fill="#263238" xml:space="preserve">Claim: internet-client-config</text>
</g>
<g><rect x="453.0" y="485" width="164" height="89" rx="8" fill="#EFEBE9" stroke="#5D4037" stroke-width="1.4"/>
<path d="M 453.0 493 a8 8 0 0 1 8 -8 h148 a8 8 0 0 1 8 8 v22 h-164 z" fill="#5D4037"/>
<line x1="464.0" y1="500" x2="469.0" y2="500" stroke="white" stroke-width="1.8"/><path d="M 469.0 500 L 476.0 494" stroke="white" stroke-width="1.5" fill="none"/><path d="M 469.0 500 L 476.0 500" stroke="white" stroke-width="1.5" fill="none"/><path d="M 469.0 500 L 476.0 506" stroke="white" stroke-width="1.5" fill="none"/><circle cx="469.0" cy="500" r="2" fill="white"/>
<text x="485.0" y="505" font-family="Menlo,Consolas,monospace" font-size="12" font-weight="bold" fill="white" xml:space="preserve">svc facility</text>
<text x="465.0" y="534" font-family="Menlo,Consolas,monospace" font-size="11" fill="#263238" xml:space="preserve">ClusterIP</text>
<text x="465.0" y="549" font-family="Menlo,Consolas,monospace" font-size="11" fill="#263238" xml:space="preserve">5076/TCP only</text>
<text x="465.0" y="564" font-family="Menlo,Consolas,monospace" font-size="11" fill="#263238" xml:space="preserve">selects app=gateway</text>
</g>
<g><rect x="373.5" y="618" width="323" height="194" rx="8" fill="#FFF3E0" stroke="#FB8C00" stroke-width="1.4"/>
<path d="M 373.5 626 a8 8 0 0 1 8 -8 h307 a8 8 0 0 1 8 8 v22 h-323 z" fill="#FB8C00"/>
<path d="M 382.5 631 h9 m-3 -3 l3 3 l-3 3" stroke="white" stroke-width="1.8" fill="none"/><path d="M 398.5 637 h-9 m3 -3 l-3 3 l3 3" stroke="white" stroke-width="1.8" fill="none"/>
<text x="405.5" y="638" font-family="Menlo,Consolas,monospace" font-size="12" font-weight="bold" fill="white" xml:space="preserve">pvxs-lab-gateway</text>
<text x="385.5" y="667" font-family="Menlo,Consolas,monospace" font-size="11" fill="#263238" xml:space="preserve">Labels: app=gateway zone=perimeter</text>
<text x="385.5" y="682" font-family="Menlo,Consolas,monospace" font-size="11" fill="#263238" xml:space="preserve">Image: gateway</text>
<text x="385.5" y="697" font-family="Menlo,Consolas,monospace" font-size="11" fill="#263238" xml:space="preserve">Program: p4p pvagw</text>
<text x="385.5" y="712" font-family="Menlo,Consolas,monospace" font-size="11" fill="#263238" xml:space="preserve">readOnly: false</text>
<text x="385.5" y="727" font-family="Menlo,Consolas,monospace" font-size="11" fill="#263238" xml:space="preserve">TLS only: EPICS_PVAS_SERVER_PORT NO,</text>
<text x="385.5" y="742" font-family="Menlo,Consolas,monospace" font-size="11" fill="#263238" xml:space="preserve">    EPICS_PVAS_TLS_PORT 5076</text>
<text x="385.5" y="757" font-family="Menlo,Consolas,monospace" font-size="11" fill="#263238" xml:space="preserve">Upstream address list: pvxs-lab-pvacms</text>
<text x="385.5" y="772" font-family="Menlo,Consolas,monospace" font-size="11" fill="#263238" xml:space="preserve">    pvxs-lab-testioc pvxs-lab-tstioc</text>
<text x="385.5" y="787" font-family="Menlo,Consolas,monospace" font-size="11" fill="#263238" xml:space="preserve">Claim: gateway-config</text>
<text x="385.5" y="802" font-family="Menlo,Consolas,monospace" font-size="11" fill="#263238" xml:space="preserve">conf and pvlist from ConfigMap gateway-config</text>
</g>
<path d="M 217.5 1144 L 217.5 1178" fill="none" stroke="#3949AB" stroke-width="2" stroke-linejoin="round" stroke-linecap="round"/>
<circle cx="217.5" cy="1178" r="4" fill="#3949AB"/>
<path d="M 217.5 1178 L 217.5 1210" fill="none" stroke="#3949AB" stroke-width="2" stroke-linejoin="round" stroke-linecap="round"/>
<circle cx="217.5" cy="1178" r="4" fill="#3949AB"/>
<path d="M 535.0 1178 L 535.0 1210" fill="none" stroke="#3949AB" stroke-width="2" stroke-linejoin="round" stroke-linecap="round"/>
<circle cx="535.0" cy="1178" r="4" fill="#3949AB"/>
<path d="M 842.5 1178 L 842.5 1210" fill="none" stroke="#3949AB" stroke-width="2" stroke-linejoin="round" stroke-linecap="round"/>
<circle cx="842.5" cy="1178" r="4" fill="#3949AB"/>
<path d="M 217.5 1299 L 217.5 1337" fill="none" stroke="#5D4037" stroke-width="2" stroke-linejoin="round" stroke-linecap="round"/>
<path d="M 213.0 1335 L 222.0 1335 L 217.5 1342 z" fill="#5D4037"/>
<g><rect x="235.8" y="1312.0" width="55.4" height="18" rx="9" fill="white" stroke="#5D4037" stroke-width="1.2"/><text x="263.5" y="1324.5" text-anchor="middle" font-family="Menlo,Consolas,monospace" font-size="10" fill="#5D4037">selects</text></g>
<path d="M 535.0 1299 L 535.0 1337" fill="none" stroke="#5D4037" stroke-width="2" stroke-linejoin="round" stroke-linecap="round"/>
<path d="M 530.5 1335 L 539.5 1335 L 535.0 1342 z" fill="#5D4037"/>
<g><rect x="553.3" y="1312.0" width="55.4" height="18" rx="9" fill="white" stroke="#5D4037" stroke-width="1.2"/><text x="581.0" y="1324.5" text-anchor="middle" font-family="Menlo,Consolas,monospace" font-size="10" fill="#5D4037">selects</text></g>
<path d="M 842.5 1299 L 842.5 1337" fill="none" stroke="#5D4037" stroke-width="2" stroke-linejoin="round" stroke-linecap="round"/>
<path d="M 838.0 1335 L 847.0 1335 L 842.5 1342 z" fill="#5D4037"/>
<g><rect x="860.8" y="1312.0" width="55.4" height="18" rx="9" fill="white" stroke="#5D4037" stroke-width="1.2"/><text x="888.5" y="1324.5" text-anchor="middle" font-family="Menlo,Consolas,monospace" font-size="10" fill="#5D4037">selects</text></g>
<path d="M 535.0 574 L 535.0 612" fill="none" stroke="#5D4037" stroke-width="2" stroke-linejoin="round" stroke-linecap="round"/>
<path d="M 530.5 610 L 539.5 610 L 535.0 617 z" fill="#5D4037"/>
<g><rect x="553.3" y="587.0" width="55.4" height="18" rx="9" fill="white" stroke="#5D4037" stroke-width="1.2"/><text x="581.0" y="599.5" text-anchor="middle" font-family="Menlo,Consolas,monospace" font-size="10" fill="#5D4037">selects</text></g>
<path d="M 535.0 329 L 535.0 479" fill="none" stroke="#455A64" stroke-width="2.5" stroke-linejoin="round" stroke-linecap="round"/>
<path d="M 530.5 477 L 539.5 477 L 535.0 484 z" fill="#455A64"/>
<g><rect x="479.4" y="358.0" width="111.2" height="18" rx="9" fill="white" stroke="#455A64" stroke-width="1.2"/><text x="535.0" y="370.5" text-anchor="middle" font-family="Menlo,Consolas,monospace" font-size="10" fill="#455A64">pvas:// TLS only</text></g>
<path d="M 535.0 812 L 535.0 1178" fill="none" stroke="#3949AB" stroke-width="2" stroke-linejoin="round" stroke-linecap="round"/>
<circle cx="535.0" cy="1178" r="4" fill="#3949AB"/>
<g><rect x="494.9" y="861.0" width="80.2" height="18" rx="9" fill="white" stroke="#3949AB" stroke-width="1.2"/><text x="535.0" y="873.5" text-anchor="middle" font-family="Menlo,Consolas,monospace" font-size="10" fill="#3949AB">client side</text></g>
<path d="M 984.0 1455.0 L 1054 1455.0 L 1054 254.5 L 711.0 254.5" fill="none" stroke="#9E9E9E" stroke-width="1.8" stroke-dasharray="6 5" stroke-linejoin="round" stroke-linecap="round"/>
<path d="M 712.0 250.0 L 712.0 259.0 L 705.0 254.5 z" fill="#9E9E9E"/>
<text x="1046" y="379" text-anchor="end" font-family="Menlo,Consolas,monospace" font-size="10" fill="#9E9E9E">manually distribute trust_anchor.p12</text>
<text x="1046" y="393" text-anchor="end" font-family="Menlo,Consolas,monospace" font-size="10" fill="#9E9E9E">to establish trust</text>
<g><rect x="40" y="1633" width="243" height="104" rx="8" fill="#FFFDE7" stroke="#9E9D24" stroke-width="1.4"/>
<path d="M 40 1641 a8 8 0 0 1 8 -8 h227 a8 8 0 0 1 8 8 v22 h-243 z" fill="#9E9D24"/>
<path d="M 51 1640 h8 l4 4 v12 h-12 z" fill="none" stroke="white" stroke-width="1.8"/><path d="M 59 1640 v4 h4" fill="none" stroke="white" stroke-width="1.4"/>
<text x="72" y="1653" font-family="Menlo,Consolas,monospace" font-size="12" font-weight="bold" fill="white" xml:space="preserve">ConfigMaps</text>
<text x="52" y="1682" font-family="Menlo,Consolas,monospace" font-size="11" fill="#263238" xml:space="preserve">lab-scripts: the start scripts</text>
<text x="52" y="1697" font-family="Menlo,Consolas,monospace" font-size="11" fill="#263238" xml:space="preserve">lab-acf: the access files</text>
<text x="52" y="1712" font-family="Menlo,Consolas,monospace" font-size="11" fill="#263238" xml:space="preserve">gateway-config - gateway.conf and</text>
<text x="52" y="1727" font-family="Menlo,Consolas,monospace" font-size="11" fill="#263238" xml:space="preserve">    gateway.pvlist for pvagw</text>
</g>
<g><rect x="311" y="1633" width="290" height="74" rx="8" fill="#FFFDE7" stroke="#9E9D24" stroke-width="1.4"/>
<path d="M 311 1641 a8 8 0 0 1 8 -8 h274 a8 8 0 0 1 8 8 v22 h-290 z" fill="#9E9D24"/>
<path d="M 322 1640 h8 l4 4 v12 h-12 z" fill="none" stroke="white" stroke-width="1.8"/><path d="M 330 1640 v4 h4" fill="none" stroke="white" stroke-width="1.4"/>
<text x="343" y="1653" font-family="Menlo,Consolas,monospace" font-size="12" font-weight="bold" fill="white" xml:space="preserve">ConfigMap lab-issuer</text>
<text x="323" y="1682" font-family="Menlo,Consolas,monospace" font-size="11" fill="#263238" xml:space="preserve">issuer id, read back after the authority</text>
<text x="323" y="1697" font-family="Menlo,Consolas,monospace" font-size="11" fill="#263238" xml:space="preserve">exists; pods roll to mount it</text>
</g>
<g><rect x="629" y="1633" width="296" height="119" rx="8" fill="#FFFDE7" stroke="#9E9D24" stroke-width="1.4"/>
<path d="M 629 1641 a8 8 0 0 1 8 -8 h280 a8 8 0 0 1 8 8 v22 h-296 z" fill="#9E9D24"/>
<path d="M 640 1640 h8 l4 4 v12 h-12 z" fill="none" stroke="white" stroke-width="1.8"/><path d="M 648 1640 v4 h4" fill="none" stroke="white" stroke-width="1.4"/>
<text x="661" y="1653" font-family="Menlo,Consolas,monospace" font-size="12" font-weight="bold" fill="white" xml:space="preserve">PersistentVolumeClaims</text>
<text x="641" y="1682" font-family="Menlo,Consolas,monospace" font-size="11" fill="#263238" xml:space="preserve">idm-config, idm-data, testioc-config,</text>
<text x="641" y="1697" font-family="Menlo,Consolas,monospace" font-size="11" fill="#263238" xml:space="preserve">tstioc-config, gateway-config,</text>
<text x="641" y="1712" font-family="Menlo,Consolas,monospace" font-size="11" fill="#263238" xml:space="preserve">lab-client-config, internet-client-config</text>
<text x="641" y="1727" font-family="Menlo,Consolas,monospace" font-size="11" fill="#263238" xml:space="preserve">Keychains and the database outlive their</text>
<text x="641" y="1742" font-family="Menlo,Consolas,monospace" font-size="11" fill="#263238" xml:space="preserve">pods, so a restart is the same holder</text>
</g>
<rect x="40" y="1796" width="803" height="481" rx="10" fill="white" stroke="#B0BEC5" stroke-width="1.4"/>
<path d="M 40 1806 a10 10 0 0 1 10 -10 h783 a10 10 0 0 1 10 10 v20 h-803 z" fill="#455A64"/>
<text x="54" y="1816" font-family="Helvetica Neue,Arial,sans-serif" font-size="14" font-weight="bold" fill="white">Legend</text>
<line x1="457.0" y1="1834" x2="457.0" y2="2267" stroke="#CFD8DC" stroke-width="1"/>
<rect x="54" y="1836" width="14" height="14" rx="3" fill="#546E7A"/>
<text x="78" y="1847" font-family="Menlo,Consolas,monospace" font-size="11" fill="#263238" xml:space="preserve">client workstation pod</text>
<rect x="54" y="1860" width="14" height="14" rx="3" fill="#43A047"/>
<text x="78" y="1871" font-family="Menlo,Consolas,monospace" font-size="11" fill="#263238" xml:space="preserve">IOC pod</text>
<rect x="54" y="1884" width="14" height="14" rx="3" fill="#1E88E5"/>
<text x="78" y="1895" font-family="Menlo,Consolas,monospace" font-size="11" fill="#263238" xml:space="preserve">PVACMS pod - the certificate manager</text>
<rect x="54" y="1908" width="14" height="14" rx="3" fill="#FB8C00"/>
<text x="78" y="1919" font-family="Menlo,Consolas,monospace" font-size="11" fill="#263238" xml:space="preserve">gateway pod - forwards PVAccess across the boundary</text>
<rect x="54" y="1932" width="14" height="14" rx="3" fill="#5D4037"/>
<text x="78" y="1943" font-family="Menlo,Consolas,monospace" font-size="11" fill="#263238" xml:space="preserve">Service - a stable name and ports in front of a pod</text>
<rect x="54" y="1956" width="14" height="14" rx="3" fill="#9E9D24"/>
<text x="78" y="1967" font-family="Menlo,Consolas,monospace" font-size="11" fill="#263238" xml:space="preserve">cluster objects - ConfigMaps, claims, policies, notes</text>
<line x1="54" y1="1996" x2="94" y2="1996" stroke="#5D4037" stroke-width="2"/>
<text x="104" y="2000" font-family="Menlo,Consolas,monospace" font-size="11" fill="#263238" xml:space="preserve">Service selects pod - a short solid arrow</text>
<line x1="54" y1="2020" x2="94" y2="2020" stroke="#3949AB" stroke-width="4"/>
<text x="104" y="2024" font-family="Menlo,Consolas,monospace" font-size="11" fill="#263238" xml:space="preserve">PVA search and data on the lab segment</text>
<line x1="54" y1="2044" x2="94" y2="2044" stroke="#455A64" stroke-width="2.5"/>
<text x="104" y="2048" font-family="Menlo,Consolas,monospace" font-size="11" fill="#263238" xml:space="preserve">the outside path in - pvas:// over TLS alone</text>
<line x1="54" y1="2068" x2="94" y2="2068" stroke="#9E9E9E" stroke-width="1.8" stroke-dasharray="6 5"/>
<text x="104" y="2072" font-family="Menlo,Consolas,monospace" font-size="11" fill="#263238" xml:space="preserve">manually distributed trust_anchor.p12</text>
<text x="474" y="1846" font-family="Menlo,Consolas,monospace" font-size="11" font-weight="bold" fill="#263238" xml:space="preserve">Notation</text>
<text x="474" y="1861" font-family="Menlo,Consolas,monospace" font-size="11" fill="#263238" xml:space="preserve">5075/TCP  : PVAccess, plaintext</text>
<text x="474" y="1876" font-family="Menlo,Consolas,monospace" font-size="11" fill="#263238" xml:space="preserve">5076/TCP  : PVAccess over TLS</text>
<text x="474" y="1891" font-family="Menlo,Consolas,monospace" font-size="11" fill="#263238" xml:space="preserve">5076/UDP  : PVAccess search</text>
<text x="474" y="1906" font-family="Menlo,Consolas,monospace" font-size="11" fill="#263238" xml:space="preserve">pvas://   : a PVAccess name server address, over TLS</text>
<text x="474" y="1921" font-family="Menlo,Consolas,monospace" font-size="11" fill="#263238" xml:space="preserve">ClusterIP : a Service address that exists only</text>
<text x="474" y="1936" font-family="Menlo,Consolas,monospace" font-size="11" fill="#263238" xml:space="preserve">            inside the cluster</text>
<text x="474" y="1951" font-family="Menlo,Consolas,monospace" font-size="11" fill="#263238" xml:space="preserve">app=, zone= : pod labels. A Service picks its pod</text>
<text x="474" y="1966" font-family="Menlo,Consolas,monospace" font-size="11" fill="#263238" xml:space="preserve">            by app; a NetworkPolicy admits by zone</text>
<text x="474" y="1981" font-family="Menlo,Consolas,monospace" font-size="11" fill="#263238" xml:space="preserve"></text>
<text x="474" y="1996" font-family="Menlo,Consolas,monospace" font-size="11" fill="#263238" xml:space="preserve">A Service name resolves inside the cluster, so the</text>
<text x="474" y="2011" font-family="Menlo,Consolas,monospace" font-size="11" fill="#263238" xml:space="preserve">address lists name Services, not addresses.</text>
<text x="474" y="2036" font-family="Menlo,Consolas,monospace" font-size="11" font-weight="bold" fill="#263238" xml:space="preserve">Abbreviations</text>
<text x="474" y="2051" font-family="Menlo,Consolas,monospace" font-size="11" fill="#263238" xml:space="preserve">PVACMS : certificate manager</text>
<text x="474" y="2066" font-family="Menlo,Consolas,monospace" font-size="11" fill="#263238" xml:space="preserve">IOC    : input output controller</text>
<text x="474" y="2081" font-family="Menlo,Consolas,monospace" font-size="11" fill="#263238" xml:space="preserve">PVA    : PVAccess, the EPICS network protocol</text>
<text x="474" y="2096" font-family="Menlo,Consolas,monospace" font-size="11" fill="#263238" xml:space="preserve">CNI    : container network interface, the</text>
<text x="474" y="2111" font-family="Menlo,Consolas,monospace" font-size="11" fill="#263238" xml:space="preserve">         cluster network plugin</text>
<text x="474" y="2126" font-family="Menlo,Consolas,monospace" font-size="11" fill="#263238" xml:space="preserve">pvagw  : the p4p gateway program</text>
<text x="474" y="2141" font-family="Menlo,Consolas,monospace" font-size="11" fill="#263238" xml:space="preserve">conf, pvlist : the gateway configuration files</text>
<text x="474" y="2166" font-family="Menlo,Consolas,monospace" font-size="11" fill="#607D8B" xml:space="preserve">A line claims attachment. Arrowheads appear only</text>
<text x="474" y="2181" font-family="Menlo,Consolas,monospace" font-size="11" fill="#607D8B" xml:space="preserve">where a direction is real.</text>
<text x="474" y="2196" font-family="Menlo,Consolas,monospace" font-size="11" fill="#607D8B" xml:space="preserve"></text>
<text x="474" y="2211" font-family="Menlo,Consolas,monospace" font-size="11" fill="#607D8B" xml:space="preserve">The outside workstation cannot ask the certificate</text>
<text x="474" y="2226" font-family="Menlo,Consolas,monospace" font-size="11" fill="#607D8B" xml:space="preserve">manager about its own certificate, so it is told</text>
<text x="474" y="2241" font-family="Menlo,Consolas,monospace" font-size="11" fill="#607D8B" xml:space="preserve">no_own_cert_status_check; the gateway checks what</text>
<text x="474" y="2256" font-family="Menlo,Consolas,monospace" font-size="11" fill="#607D8B" xml:space="preserve">is presented to it instead.</text>
</svg>